<svg xmlns="http://www.w3.org/2000/svg" xmlns:xlink="http://www.w3.org/1999/xlink" width="500" zoomAndPan="magnify" viewBox="0 0 375 374.999991" height="500" preserveAspectRatio="xMidYMid meet" version="1.0"><defs><clipPath id="89bc4b2f14"><path d="M 38.539062 37.5 L 338.539062 37.5 L 338.539062 337.5 L 38.539062 337.5 Z M 38.539062 37.5 " clip-rule="nonzero"/></clipPath><clipPath id="22edeadb93"><path d="M 188.539062 37.5 C 105.695312 37.5 38.539062 104.65625 38.539062 187.5 C 38.539062 270.34375 105.695312 337.5 188.539062 337.5 C 271.382812 337.5 338.539062 270.34375 338.539062 187.5 C 338.539062 104.65625 271.382812 37.5 188.539062 37.5 " clip-rule="nonzero"/></clipPath><clipPath id="98df8cbb09"><path d="M 71.058594 71.058594 L 304.308594 71.058594 L 304.308594 304.308594 L 71.058594 304.308594 Z M 71.058594 71.058594 " clip-rule="nonzero"/></clipPath><clipPath id="c05d7a2f10"><path d="M 304.308594 187.683594 C 304.308594 189.59375 304.261719 191.5 304.167969 193.40625 C 304.078125 195.3125 303.9375 197.21875 303.75 199.117188 C 303.5625 201.015625 303.328125 202.910156 303.046875 204.796875 C 302.769531 206.6875 302.441406 208.566406 302.070312 210.4375 C 301.695312 212.308594 301.277344 214.171875 300.816406 216.023438 C 300.351562 217.875 299.84375 219.714844 299.289062 221.539062 C 298.734375 223.367188 298.136719 225.179688 297.492188 226.976562 C 296.851562 228.773438 296.164062 230.550781 295.433594 232.316406 C 294.703125 234.078125 293.929688 235.824219 293.113281 237.550781 C 292.296875 239.273438 291.4375 240.980469 290.539062 242.660156 C 289.640625 244.34375 288.699219 246.003906 287.71875 247.640625 C 286.738281 249.28125 285.714844 250.890625 284.65625 252.480469 C 283.59375 254.066406 282.496094 255.625 281.359375 257.160156 C 280.222656 258.691406 279.046875 260.195312 277.835938 261.671875 C 276.625 263.148438 275.378906 264.589844 274.097656 266.007812 C 272.816406 267.421875 271.5 268.800781 270.152344 270.152344 C 268.800781 271.5 267.421875 272.816406 266.007812 274.097656 C 264.589844 275.378906 263.148438 276.625 261.671875 277.835938 C 260.195312 279.046875 258.691406 280.222656 257.160156 281.359375 C 255.625 282.496094 254.066406 283.59375 252.480469 284.65625 C 250.890625 285.714844 249.28125 286.738281 247.640625 287.71875 C 246.003906 288.699219 244.34375 289.640625 242.660156 290.539062 C 240.980469 291.4375 239.273438 292.296875 237.550781 293.113281 C 235.824219 293.929688 234.078125 294.703125 232.316406 295.433594 C 230.550781 296.164062 228.773438 296.851562 226.976562 297.492188 C 225.179688 298.136719 223.367188 298.734375 221.539062 299.289062 C 219.714844 299.84375 217.875 300.351562 216.023438 300.816406 C 214.171875 301.277344 212.308594 301.695312 210.4375 302.070312 C 208.566406 302.441406 206.6875 302.769531 204.796875 303.046875 C 202.910156 303.328125 201.015625 303.5625 199.117188 303.75 C 197.21875 303.9375 195.3125 304.078125 193.40625 304.167969 C 191.5 304.261719 189.59375 304.308594 187.683594 304.308594 C 185.777344 304.308594 183.871094 304.261719 181.960938 304.167969 C 180.054688 304.078125 178.152344 303.9375 176.253906 303.75 C 174.355469 303.5625 172.460938 303.328125 170.574219 303.046875 C 168.683594 302.769531 166.804688 302.441406 164.933594 302.070312 C 163.0625 301.695312 161.199219 301.277344 159.347656 300.816406 C 157.496094 300.351562 155.65625 299.84375 153.832031 299.289062 C 152.003906 298.734375 150.191406 298.136719 148.394531 297.492188 C 146.597656 296.851562 144.816406 296.164062 143.054688 295.433594 C 141.292969 294.703125 139.546875 293.929688 137.820312 293.113281 C 136.097656 292.296875 134.390625 291.4375 132.707031 290.539062 C 131.027344 289.640625 129.363281 288.699219 127.726562 287.71875 C 126.089844 286.738281 124.480469 285.714844 122.890625 284.65625 C 121.304688 283.59375 119.746094 282.496094 118.210938 281.359375 C 116.679688 280.222656 115.175781 279.046875 113.699219 277.835938 C 112.222656 276.625 110.777344 275.378906 109.363281 274.097656 C 107.949219 272.816406 106.570312 271.5 105.21875 270.152344 C 103.871094 268.800781 102.554688 267.421875 101.273438 266.007812 C 99.988281 264.589844 98.742188 263.148438 97.53125 261.671875 C 96.320312 260.195312 95.148438 258.691406 94.011719 257.160156 C 92.875 255.625 91.777344 254.066406 90.714844 252.480469 C 89.65625 250.890625 88.632812 249.28125 87.652344 247.640625 C 86.671875 246.003906 85.730469 244.34375 84.832031 242.660156 C 83.929688 240.980469 83.074219 239.273438 82.257812 237.550781 C 81.441406 235.824219 80.667969 234.078125 79.9375 232.316406 C 79.207031 230.550781 78.519531 228.773438 77.878906 226.976562 C 77.234375 225.179688 76.636719 223.367188 76.082031 221.539062 C 75.527344 219.714844 75.019531 217.875 74.554688 216.023438 C 74.089844 214.171875 73.671875 212.308594 73.300781 210.4375 C 72.929688 208.566406 72.601562 206.6875 72.324219 204.796875 C 72.042969 202.910156 71.808594 201.015625 71.621094 199.117188 C 71.433594 197.21875 71.292969 195.3125 71.199219 193.40625 C 71.105469 191.5 71.058594 189.59375 71.058594 187.683594 C 71.058594 185.777344 71.105469 183.871094 71.199219 181.960938 C 71.292969 180.054688 71.433594 178.152344 71.621094 176.253906 C 71.808594 174.355469 72.042969 172.460938 72.324219 170.574219 C 72.601562 168.683594 72.929688 166.804688 73.300781 164.933594 C 73.671875 163.0625 74.089844 161.199219 74.554688 159.347656 C 75.019531 157.496094 75.527344 155.65625 76.082031 153.832031 C 76.636719 152.003906 77.234375 150.191406 77.878906 148.394531 C 78.519531 146.597656 79.207031 144.816406 79.9375 143.054688 C 80.667969 141.292969 81.441406 139.546875 82.257812 137.820312 C 83.074219 136.097656 83.929688 134.390625 84.832031 132.707031 C 85.730469 131.027344 86.671875 129.363281 87.652344 127.726562 C 88.632812 126.089844 89.65625 124.480469 90.714844 122.890625 C 91.777344 121.304688 92.875 119.746094 94.011719 118.210938 C 95.148438 116.679688 96.320312 115.175781 97.53125 113.699219 C 98.742188 112.222656 99.988281 110.777344 101.273438 109.363281 C 102.554688 107.949219 103.871094 106.570312 105.21875 105.21875 C 106.570312 103.871094 107.949219 102.554688 109.363281 101.273438 C 110.777344 99.988281 112.222656 98.742188 113.699219 97.53125 C 115.175781 96.320312 116.679688 95.148438 118.210938 94.011719 C 119.746094 92.875 121.304688 91.777344 122.890625 90.714844 C 124.480469 89.65625 126.089844 88.632812 127.726562 87.652344 C 129.367188 86.671875 131.027344 85.730469 132.707031 84.832031 C 134.390625 83.929688 136.097656 83.074219 137.820312 82.257812 C 139.546875 81.441406 141.292969 80.667969 143.054688 79.9375 C 144.816406 79.207031 146.597656 78.519531 148.394531 77.878906 C 150.191406 77.234375 152.003906 76.636719 153.832031 76.082031 C 155.65625 75.527344 157.496094 75.019531 159.347656 74.554688 C 161.199219 74.089844 163.0625 73.671875 164.933594 73.300781 C 166.804688 72.929688 168.683594 72.601562 170.574219 72.324219 C 172.460938 72.042969 174.355469 71.808594 176.253906 71.621094 C 178.152344 71.433594 180.054688 71.292969 181.960938 71.199219 C 183.871094 71.105469 185.777344 71.058594 187.683594 71.058594 C 189.59375 71.058594 191.5 71.105469 193.40625 71.199219 C 195.3125 71.292969 197.21875 71.433594 199.117188 71.621094 C 201.015625 71.808594 202.910156 72.042969 204.796875 72.324219 C 206.6875 72.601562 208.566406 72.929688 210.4375 73.300781 C 212.308594 73.671875 214.171875 74.089844 216.023438 74.554688 C 217.875 75.019531 219.714844 75.527344 221.539062 76.082031 C 223.367188 76.636719 225.179688 77.234375 226.976562 77.878906 C 228.773438 78.519531 230.550781 79.207031 232.316406 79.9375 C 234.078125 80.667969 235.824219 81.441406 237.550781 82.257812 C 239.273438 83.074219 240.980469 83.929688 242.660156 84.832031 C 244.34375 85.730469 246.003906 86.671875 247.640625 87.652344 C 249.28125 88.632812 250.890625 89.65625 252.480469 90.714844 C 254.066406 91.777344 255.625 92.875 257.160156 94.011719 C 258.691406 95.148438 260.195312 96.320312 261.671875 97.53125 C 263.148438 98.742188 264.589844 99.988281 266.007812 101.273438 C 267.421875 102.554688 268.800781 103.871094 270.152344 105.21875 C 271.5 106.570312 272.816406 107.949219 274.097656 109.363281 C 275.378906 110.777344 276.625 112.222656 277.835938 113.699219 C 279.046875 115.175781 280.222656 116.679688 281.359375 118.210938 C 282.496094 119.746094 283.59375 121.304688 284.65625 122.890625 C 285.714844 124.480469 286.738281 126.089844 287.71875 127.726562 C 288.699219 129.363281 289.640625 131.027344 290.539062 132.707031 C 291.4375 134.390625 292.296875 136.097656 293.113281 137.820312 C 293.929688 139.546875 294.703125 141.292969 295.433594 143.054688 C 296.164062 144.816406 296.851562 146.597656 297.492188 148.394531 C 298.136719 150.191406 298.734375 152.003906 299.289062 153.832031 C 299.84375 155.65625 300.351562 157.496094 300.816406 159.347656 C 301.277344 161.199219 301.695312 163.0625 302.070312 164.933594 C 302.441406 166.804688 302.769531 168.683594 303.046875 170.574219 C 303.328125 172.460938 303.5625 174.355469 303.75 176.253906 C 303.9375 178.152344 304.078125 180.054688 304.167969 181.960938 C 304.261719 183.871094 304.308594 185.777344 304.308594 187.683594 Z M 304.308594 187.683594 " clip-rule="nonzero"/></clipPath><linearGradient x1="1770.926039" gradientTransform="matrix(0.000000000000000111, 1.818005, -1.818005, 0.000000000000000111, 632.794609, -3148.491244)" y1="244.834" x2="1899.226039" gradientUnits="userSpaceOnUse" y2="244.834" id="d27afe4d8b"><stop stop-opacity="1" stop-color="rgb(97.999573%, 16.499329%, 77.598572%)" offset="0"/><stop stop-opacity="1" stop-color="rgb(97.770691%, 16.52832%, 77.735901%)" offset="0.00390625"/><stop stop-opacity="1" stop-color="rgb(97.541809%, 16.557312%, 77.874756%)" offset="0.0078125"/><stop stop-opacity="1" stop-color="rgb(97.312927%, 16.586304%, 78.012085%)" offset="0.0117188"/><stop stop-opacity="1" stop-color="rgb(97.084045%, 16.615295%, 78.15094%)" offset="0.015625"/><stop stop-opacity="1" stop-color="rgb(96.855164%, 16.644287%, 78.288269%)" offset="0.0195312"/><stop stop-opacity="1" stop-color="rgb(96.626282%, 16.673279%, 78.425598%)" offset="0.0234375"/><stop stop-opacity="1" stop-color="rgb(96.3974%, 16.702271%, 78.562927%)" offset="0.0273437"/><stop stop-opacity="1" stop-color="rgb(96.168518%, 16.731262%, 78.701782%)" offset="0.03125"/><stop stop-opacity="1" stop-color="rgb(95.939636%, 16.758728%, 78.839111%)" offset="0.0351562"/><stop stop-opacity="1" stop-color="rgb(95.710754%, 16.78772%, 78.97644%)" offset="0.0390625"/><stop stop-opacity="1" stop-color="rgb(95.481873%, 16.816711%, 79.11377%)" offset="0.0429687"/><stop stop-opacity="1" stop-color="rgb(95.252991%, 16.845703%, 79.252625%)" offset="0.046875"/><stop stop-opacity="1" stop-color="rgb(95.024109%, 16.874695%, 79.389954%)" offset="0.0507812"/><stop stop-opacity="1" stop-color="rgb(94.795227%, 16.903687%, 79.528809%)" offset="0.0546875"/><stop stop-opacity="1" stop-color="rgb(94.566345%, 16.932678%, 79.666138%)" offset="0.0585937"/><stop stop-opacity="1" stop-color="rgb(94.337463%, 16.96167%, 79.803467%)" offset="0.0625"/><stop stop-opacity="1" stop-color="rgb(94.108582%, 16.990662%, 79.940796%)" offset="0.0664062"/><stop stop-opacity="1" stop-color="rgb(93.8797%, 17.019653%, 80.079651%)" offset="0.0703125"/><stop stop-opacity="1" stop-color="rgb(93.650818%, 17.048645%, 80.21698%)" offset="0.0742188"/><stop stop-opacity="1" stop-color="rgb(93.421936%, 17.077637%, 80.355835%)" offset="0.078125"/><stop stop-opacity="1" stop-color="rgb(93.193054%, 17.106628%, 80.493164%)" offset="0.0820312"/><stop stop-opacity="1" stop-color="rgb(92.964172%, 17.13562%, 80.630493%)" offset="0.0859375"/><stop stop-opacity="1" stop-color="rgb(92.735291%, 17.164612%, 80.767822%)" offset="0.0898437"/><stop stop-opacity="1" stop-color="rgb(92.506409%, 17.193604%, 80.906677%)" offset="0.09375"/><stop stop-opacity="1" stop-color="rgb(92.277527%, 17.222595%, 81.044006%)" offset="0.0976563"/><stop stop-opacity="1" stop-color="rgb(92.050171%, 17.251587%, 81.181335%)" offset="0.101563"/><stop stop-opacity="1" stop-color="rgb(91.821289%, 17.279053%, 81.318665%)" offset="0.105469"/><stop stop-opacity="1" stop-color="rgb(91.592407%, 17.308044%, 81.45752%)" offset="0.109375"/><stop stop-opacity="1" stop-color="rgb(91.363525%, 17.337036%, 81.594849%)" offset="0.113281"/><stop stop-opacity="1" stop-color="rgb(91.134644%, 17.366028%, 81.733704%)" offset="0.117188"/><stop stop-opacity="1" stop-color="rgb(90.905762%, 17.39502%, 81.871033%)" offset="0.121094"/><stop stop-opacity="1" stop-color="rgb(90.67688%, 17.424011%, 82.008362%)" offset="0.125"/><stop stop-opacity="1" stop-color="rgb(90.447998%, 17.453003%, 82.145691%)" offset="0.128906"/><stop stop-opacity="1" stop-color="rgb(90.219116%, 17.481995%, 82.284546%)" offset="0.132812"/><stop stop-opacity="1" stop-color="rgb(89.990234%, 17.510986%, 82.421875%)" offset="0.136719"/><stop stop-opacity="1" stop-color="rgb(89.761353%, 17.539978%, 82.559204%)" offset="0.140625"/><stop stop-opacity="1" stop-color="rgb(89.532471%, 17.56897%, 82.696533%)" offset="0.144531"/><stop stop-opacity="1" stop-color="rgb(89.303589%, 17.597961%, 82.835388%)" offset="0.148438"/><stop stop-opacity="1" stop-color="rgb(89.074707%, 17.626953%, 82.972717%)" offset="0.152344"/><stop stop-opacity="1" stop-color="rgb(88.845825%, 17.655945%, 83.111572%)" offset="0.15625"/><stop stop-opacity="1" stop-color="rgb(88.616943%, 17.684937%, 83.248901%)" offset="0.160156"/><stop stop-opacity="1" stop-color="rgb(88.388062%, 17.713928%, 83.38623%)" offset="0.164062"/><stop stop-opacity="1" stop-color="rgb(88.15918%, 17.74292%, 83.52356%)" offset="0.167969"/><stop stop-opacity="1" stop-color="rgb(87.930298%, 17.771912%, 83.662415%)" offset="0.171875"/><stop stop-opacity="1" stop-color="rgb(87.701416%, 17.800903%, 83.799744%)" offset="0.175781"/><stop stop-opacity="1" stop-color="rgb(87.472534%, 17.829895%, 83.937073%)" offset="0.179687"/><stop stop-opacity="1" stop-color="rgb(87.243652%, 17.857361%, 84.074402%)" offset="0.183594"/><stop stop-opacity="1" stop-color="rgb(87.014771%, 17.886353%, 84.213257%)" offset="0.1875"/><stop stop-opacity="1" stop-color="rgb(86.785889%, 17.915344%, 84.350586%)" offset="0.191406"/><stop stop-opacity="1" stop-color="rgb(86.557007%, 17.944336%, 84.489441%)" offset="0.195313"/><stop stop-opacity="1" stop-color="rgb(86.328125%, 17.973328%, 84.62677%)" offset="0.199219"/><stop stop-opacity="1" stop-color="rgb(86.099243%, 18.002319%, 84.764099%)" offset="0.203125"/><stop stop-opacity="1" stop-color="rgb(85.870361%, 18.031311%, 84.901428%)" offset="0.207031"/><stop stop-opacity="1" stop-color="rgb(85.641479%, 18.060303%, 85.040283%)" offset="0.210938"/><stop stop-opacity="1" stop-color="rgb(85.412598%, 18.089294%, 85.177612%)" offset="0.214844"/><stop stop-opacity="1" stop-color="rgb(85.183716%, 18.118286%, 85.316467%)" offset="0.21875"/><stop stop-opacity="1" stop-color="rgb(84.954834%, 18.147278%, 85.453796%)" offset="0.222656"/><stop stop-opacity="1" stop-color="rgb(84.725952%, 18.17627%, 85.591125%)" offset="0.226562"/><stop stop-opacity="1" stop-color="rgb(84.49707%, 18.205261%, 85.728455%)" offset="0.230469"/><stop stop-opacity="1" stop-color="rgb(84.268188%, 18.234253%, 85.86731%)" offset="0.234375"/><stop stop-opacity="1" stop-color="rgb(84.039307%, 18.263245%, 86.004639%)" offset="0.238281"/><stop stop-opacity="1" stop-color="rgb(83.811951%, 18.292236%, 86.141968%)" offset="0.242188"/><stop stop-opacity="1" stop-color="rgb(83.583069%, 18.321228%, 86.279297%)" offset="0.246094"/><stop stop-opacity="1" stop-color="rgb(83.354187%, 18.35022%, 86.418152%)" offset="0.25"/><stop stop-opacity="1" stop-color="rgb(83.125305%, 18.379211%, 86.555481%)" offset="0.253906"/><stop stop-opacity="1" stop-color="rgb(82.896423%, 18.408203%, 86.694336%)" offset="0.257813"/><stop stop-opacity="1" stop-color="rgb(82.667542%, 18.435669%, 86.831665%)" offset="0.261719"/><stop stop-opacity="1" stop-color="rgb(82.43866%, 18.464661%, 86.968994%)" offset="0.265625"/><stop stop-opacity="1" stop-color="rgb(82.209778%, 18.493652%, 87.106323%)" offset="0.269531"/><stop stop-opacity="1" stop-color="rgb(81.980896%, 18.522644%, 87.245178%)" offset="0.273438"/><stop stop-opacity="1" stop-color="rgb(81.752014%, 18.551636%, 87.382507%)" offset="0.277344"/><stop stop-opacity="1" stop-color="rgb(81.523132%, 18.580627%, 87.519836%)" offset="0.28125"/><stop stop-opacity="1" stop-color="rgb(81.29425%, 18.609619%, 87.657166%)" offset="0.285156"/><stop stop-opacity="1" stop-color="rgb(81.065369%, 18.638611%, 87.796021%)" offset="0.289063"/><stop stop-opacity="1" stop-color="rgb(80.836487%, 18.667603%, 87.93335%)" offset="0.292969"/><stop stop-opacity="1" stop-color="rgb(80.607605%, 18.696594%, 88.072205%)" offset="0.296875"/><stop stop-opacity="1" stop-color="rgb(80.378723%, 18.725586%, 88.209534%)" offset="0.300781"/><stop stop-opacity="1" stop-color="rgb(80.149841%, 18.754578%, 88.346863%)" offset="0.304688"/><stop stop-opacity="1" stop-color="rgb(79.920959%, 18.783569%, 88.484192%)" offset="0.308594"/><stop stop-opacity="1" stop-color="rgb(79.692078%, 18.812561%, 88.623047%)" offset="0.3125"/><stop stop-opacity="1" stop-color="rgb(79.463196%, 18.841553%, 88.760376%)" offset="0.316406"/><stop stop-opacity="1" stop-color="rgb(79.234314%, 18.870544%, 88.897705%)" offset="0.320312"/><stop stop-opacity="1" stop-color="rgb(79.005432%, 18.899536%, 89.035034%)" offset="0.324219"/><stop stop-opacity="1" stop-color="rgb(78.77655%, 18.928528%, 89.173889%)" offset="0.328125"/><stop stop-opacity="1" stop-color="rgb(78.547668%, 18.955994%, 89.311218%)" offset="0.332031"/><stop stop-opacity="1" stop-color="rgb(78.318787%, 18.984985%, 89.450073%)" offset="0.335938"/><stop stop-opacity="1" stop-color="rgb(78.089905%, 19.013977%, 89.587402%)" offset="0.339844"/><stop stop-opacity="1" stop-color="rgb(77.861023%, 19.042969%, 89.724731%)" offset="0.34375"/><stop stop-opacity="1" stop-color="rgb(77.632141%, 19.07196%, 89.862061%)" offset="0.347656"/><stop stop-opacity="1" stop-color="rgb(77.403259%, 19.100952%, 90.000916%)" offset="0.351562"/><stop stop-opacity="1" stop-color="rgb(77.174377%, 19.129944%, 90.138245%)" offset="0.355469"/><stop stop-opacity="1" stop-color="rgb(76.945496%, 19.158936%, 90.2771%)" offset="0.359375"/><stop stop-opacity="1" stop-color="rgb(76.716614%, 19.187927%, 90.414429%)" offset="0.363281"/><stop stop-opacity="1" stop-color="rgb(76.487732%, 19.216919%, 90.551758%)" offset="0.367188"/><stop stop-opacity="1" stop-color="rgb(76.25885%, 19.245911%, 90.689087%)" offset="0.371094"/><stop stop-opacity="1" stop-color="rgb(76.029968%, 19.274902%, 90.827942%)" offset="0.375"/><stop stop-opacity="1" stop-color="rgb(75.801086%, 19.303894%, 90.965271%)" offset="0.378906"/><stop stop-opacity="1" stop-color="rgb(75.57373%, 19.332886%, 91.1026%)" offset="0.382812"/><stop stop-opacity="1" stop-color="rgb(75.344849%, 19.361877%, 91.239929%)" offset="0.386719"/><stop stop-opacity="1" stop-color="rgb(75.115967%, 19.390869%, 91.378784%)" offset="0.390625"/><stop stop-opacity="1" stop-color="rgb(74.887085%, 19.419861%, 91.516113%)" offset="0.394531"/><stop stop-opacity="1" stop-color="rgb(74.658203%, 19.448853%, 91.654968%)" offset="0.398438"/><stop stop-opacity="1" stop-color="rgb(74.429321%, 19.477844%, 91.792297%)" offset="0.402344"/><stop stop-opacity="1" stop-color="rgb(74.200439%, 19.506836%, 91.929626%)" offset="0.40625"/><stop stop-opacity="1" stop-color="rgb(73.971558%, 19.534302%, 92.066956%)" offset="0.410156"/><stop stop-opacity="1" stop-color="rgb(73.742676%, 19.563293%, 92.205811%)" offset="0.414062"/><stop stop-opacity="1" stop-color="rgb(73.513794%, 19.592285%, 92.34314%)" offset="0.417969"/><stop stop-opacity="1" stop-color="rgb(73.284912%, 19.621277%, 92.480469%)" offset="0.421875"/><stop stop-opacity="1" stop-color="rgb(73.05603%, 19.650269%, 92.617798%)" offset="0.425781"/><stop stop-opacity="1" stop-color="rgb(72.827148%, 19.67926%, 92.756653%)" offset="0.429688"/><stop stop-opacity="1" stop-color="rgb(72.598267%, 19.708252%, 92.893982%)" offset="0.433594"/><stop stop-opacity="1" stop-color="rgb(72.369385%, 19.737244%, 93.032837%)" offset="0.4375"/><stop stop-opacity="1" stop-color="rgb(72.140503%, 19.766235%, 93.170166%)" offset="0.441406"/><stop stop-opacity="1" stop-color="rgb(71.911621%, 19.795227%, 93.307495%)" offset="0.445312"/><stop stop-opacity="1" stop-color="rgb(71.682739%, 19.824219%, 93.444824%)" offset="0.449219"/><stop stop-opacity="1" stop-color="rgb(71.453857%, 19.85321%, 93.583679%)" offset="0.453125"/><stop stop-opacity="1" stop-color="rgb(71.224976%, 19.882202%, 93.721008%)" offset="0.457031"/><stop stop-opacity="1" stop-color="rgb(70.996094%, 19.911194%, 93.858337%)" offset="0.460937"/><stop stop-opacity="1" stop-color="rgb(70.767212%, 19.940186%, 93.995667%)" offset="0.464844"/><stop stop-opacity="1" stop-color="rgb(70.53833%, 19.969177%, 94.134521%)" offset="0.46875"/><stop stop-opacity="1" stop-color="rgb(70.309448%, 19.998169%, 94.271851%)" offset="0.472656"/><stop stop-opacity="1" stop-color="rgb(70.080566%, 20.027161%, 94.410706%)" offset="0.476562"/><stop stop-opacity="1" stop-color="rgb(69.851685%, 20.054626%, 94.548035%)" offset="0.480469"/><stop stop-opacity="1" stop-color="rgb(69.622803%, 20.083618%, 94.685364%)" offset="0.484375"/><stop stop-opacity="1" stop-color="rgb(69.393921%, 20.11261%, 94.822693%)" offset="0.488281"/><stop stop-opacity="1" stop-color="rgb(69.165039%, 20.141602%, 94.961548%)" offset="0.492187"/><stop stop-opacity="1" stop-color="rgb(68.936157%, 20.170593%, 95.098877%)" offset="0.496094"/><stop stop-opacity="1" stop-color="rgb(68.707275%, 20.199585%, 95.237732%)" offset="0.5"/><stop stop-opacity="1" stop-color="rgb(68.478394%, 20.228577%, 95.375061%)" offset="0.503906"/><stop stop-opacity="1" stop-color="rgb(68.249512%, 20.257568%, 95.51239%)" offset="0.507812"/><stop stop-opacity="1" stop-color="rgb(68.02063%, 20.28656%, 95.649719%)" offset="0.511719"/><stop stop-opacity="1" stop-color="rgb(67.793274%, 20.315552%, 95.788574%)" offset="0.515625"/><stop stop-opacity="1" stop-color="rgb(67.564392%, 20.344543%, 95.925903%)" offset="0.519531"/><stop stop-opacity="1" stop-color="rgb(67.33551%, 20.373535%, 96.063232%)" offset="0.523437"/><stop stop-opacity="1" stop-color="rgb(67.106628%, 20.402527%, 96.200562%)" offset="0.527344"/><stop stop-opacity="1" stop-color="rgb(66.877747%, 20.431519%, 96.339417%)" offset="0.53125"/><stop stop-opacity="1" stop-color="rgb(66.648865%, 20.46051%, 96.476746%)" offset="0.535156"/><stop stop-opacity="1" stop-color="rgb(66.419983%, 20.489502%, 96.615601%)" offset="0.539062"/><stop stop-opacity="1" stop-color="rgb(66.191101%, 20.518494%, 96.75293%)" offset="0.542969"/><stop stop-opacity="1" stop-color="rgb(65.962219%, 20.547485%, 96.890259%)" offset="0.546875"/><stop stop-opacity="1" stop-color="rgb(65.733337%, 20.576477%, 97.027588%)" offset="0.550781"/><stop stop-opacity="1" stop-color="rgb(65.504456%, 20.605469%, 97.166443%)" offset="0.554687"/><stop stop-opacity="1" stop-color="rgb(65.275574%, 20.632935%, 97.303772%)" offset="0.558594"/><stop stop-opacity="1" stop-color="rgb(65.046692%, 20.661926%, 97.441101%)" offset="0.5625"/><stop stop-opacity="1" stop-color="rgb(64.81781%, 20.690918%, 97.57843%)" offset="0.566406"/><stop stop-opacity="1" stop-color="rgb(64.588928%, 20.71991%, 97.717285%)" offset="0.570312"/><stop stop-opacity="1" stop-color="rgb(64.360046%, 20.748901%, 97.854614%)" offset="0.574219"/><stop stop-opacity="1" stop-color="rgb(64.131165%, 20.777893%, 97.993469%)" offset="0.578125"/><stop stop-opacity="1" stop-color="rgb(63.902283%, 20.806885%, 98.130798%)" offset="0.582031"/><stop stop-opacity="1" stop-color="rgb(63.673401%, 20.835876%, 98.268127%)" offset="0.585937"/><stop stop-opacity="1" stop-color="rgb(63.444519%, 20.864868%, 98.405457%)" offset="0.589844"/><stop stop-opacity="1" stop-color="rgb(63.215637%, 20.89386%, 98.544312%)" offset="0.59375"/><stop stop-opacity="1" stop-color="rgb(62.986755%, 20.922852%, 98.681641%)" offset="0.597656"/><stop stop-opacity="1" stop-color="rgb(62.757874%, 20.951843%, 98.81897%)" offset="0.601562"/><stop stop-opacity="1" stop-color="rgb(62.528992%, 20.980835%, 98.956299%)" offset="0.605469"/><stop stop-opacity="1" stop-color="rgb(62.30011%, 21.009827%, 99.095154%)" offset="0.609375"/><stop stop-opacity="1" stop-color="rgb(62.071228%, 21.038818%, 99.232483%)" offset="0.613281"/><stop stop-opacity="1" stop-color="rgb(61.842346%, 21.06781%, 99.371338%)" offset="0.617187"/><stop stop-opacity="1" stop-color="rgb(61.613464%, 21.096802%, 99.508667%)" offset="0.621094"/><stop stop-opacity="1" stop-color="rgb(61.384583%, 21.125793%, 99.645996%)" offset="0.625"/><stop stop-opacity="1" stop-color="rgb(61.155701%, 21.154785%, 99.783325%)" offset="0.628906"/><stop stop-opacity="1" stop-color="rgb(60.926819%, 21.183777%, 99.92218%)" offset="0.632812"/><stop stop-opacity="1" stop-color="rgb(60.383606%, 21.71936%, 99.960327%)" offset="0.636719"/><stop stop-opacity="1" stop-color="rgb(59.841919%, 22.254944%, 100%)" offset="0.640625"/><stop stop-opacity="1" stop-color="rgb(59.176636%, 22.987366%, 100%)" offset="0.644531"/><stop stop-opacity="1" stop-color="rgb(58.511353%, 23.721313%, 100%)" offset="0.648437"/><stop stop-opacity="1" stop-color="rgb(57.846069%, 24.453735%, 100%)" offset="0.652344"/><stop stop-opacity="1" stop-color="rgb(57.180786%, 25.187683%, 100%)" offset="0.65625"/><stop stop-opacity="1" stop-color="rgb(56.515503%, 25.920105%, 100%)" offset="0.660156"/><stop stop-opacity="1" stop-color="rgb(55.85022%, 26.654053%, 100%)" offset="0.664062"/><stop stop-opacity="1" stop-color="rgb(55.184937%, 27.386475%, 100%)" offset="0.667969"/><stop stop-opacity="1" stop-color="rgb(54.519653%, 28.120422%, 100%)" offset="0.671875"/><stop stop-opacity="1" stop-color="rgb(53.85437%, 28.852844%, 100%)" offset="0.675781"/><stop stop-opacity="1" stop-color="rgb(53.189087%, 29.585266%, 100%)" offset="0.679687"/><stop stop-opacity="1" stop-color="rgb(52.523804%, 30.317688%, 100%)" offset="0.683594"/><stop stop-opacity="1" stop-color="rgb(51.858521%, 31.051636%, 100%)" offset="0.6875"/><stop stop-opacity="1" stop-color="rgb(51.193237%, 31.784058%, 100%)" offset="0.691406"/><stop stop-opacity="1" stop-color="rgb(50.527954%, 32.518005%, 100%)" offset="0.695312"/><stop stop-opacity="1" stop-color="rgb(49.862671%, 33.250427%, 100%)" offset="0.699219"/><stop stop-opacity="1" stop-color="rgb(49.197388%, 33.984375%, 100%)" offset="0.703125"/><stop stop-opacity="1" stop-color="rgb(48.532104%, 34.716797%, 100%)" offset="0.707031"/><stop stop-opacity="1" stop-color="rgb(47.866821%, 35.450745%, 100%)" offset="0.710937"/><stop stop-opacity="1" stop-color="rgb(47.201538%, 36.183167%, 100%)" offset="0.714844"/><stop stop-opacity="1" stop-color="rgb(46.536255%, 36.917114%, 100%)" offset="0.71875"/><stop stop-opacity="1" stop-color="rgb(45.870972%, 37.649536%, 100%)" offset="0.722656"/><stop stop-opacity="1" stop-color="rgb(45.205688%, 38.383484%, 100%)" offset="0.726562"/><stop stop-opacity="1" stop-color="rgb(44.540405%, 39.115906%, 100%)" offset="0.730469"/><stop stop-opacity="1" stop-color="rgb(43.875122%, 39.849854%, 100%)" offset="0.734375"/><stop stop-opacity="1" stop-color="rgb(43.209839%, 40.582275%, 100%)" offset="0.738281"/><stop stop-opacity="1" stop-color="rgb(42.544556%, 41.316223%, 100%)" offset="0.742187"/><stop stop-opacity="1" stop-color="rgb(41.879272%, 42.048645%, 100%)" offset="0.746094"/><stop stop-opacity="1" stop-color="rgb(41.213989%, 42.782593%, 100%)" offset="0.75"/><stop stop-opacity="1" stop-color="rgb(40.548706%, 43.515015%, 100%)" offset="0.753906"/><stop stop-opacity="1" stop-color="rgb(39.883423%, 44.247437%, 100%)" offset="0.757812"/><stop stop-opacity="1" stop-color="rgb(39.21814%, 44.979858%, 100%)" offset="0.761719"/><stop stop-opacity="1" stop-color="rgb(38.552856%, 45.713806%, 100%)" offset="0.765625"/><stop stop-opacity="1" stop-color="rgb(37.887573%, 46.446228%, 100%)" offset="0.769531"/><stop stop-opacity="1" stop-color="rgb(37.22229%, 47.180176%, 100%)" offset="0.773438"/><stop stop-opacity="1" stop-color="rgb(36.557007%, 47.912598%, 100%)" offset="0.777344"/><stop stop-opacity="1" stop-color="rgb(35.891724%, 48.646545%, 100%)" offset="0.78125"/><stop stop-opacity="1" stop-color="rgb(35.22644%, 49.378967%, 100%)" offset="0.785156"/><stop stop-opacity="1" stop-color="rgb(34.561157%, 50.112915%, 100%)" offset="0.789062"/><stop stop-opacity="1" stop-color="rgb(33.895874%, 50.845337%, 100%)" offset="0.792969"/><stop stop-opacity="1" stop-color="rgb(33.230591%, 51.579285%, 100%)" offset="0.796875"/><stop stop-opacity="1" stop-color="rgb(32.565308%, 52.311707%, 100%)" offset="0.800781"/><stop stop-opacity="1" stop-color="rgb(31.900024%, 53.045654%, 100%)" offset="0.804688"/><stop stop-opacity="1" stop-color="rgb(31.234741%, 53.778076%, 100%)" offset="0.808594"/><stop stop-opacity="1" stop-color="rgb(30.569458%, 54.512024%, 100%)" offset="0.8125"/><stop stop-opacity="1" stop-color="rgb(29.904175%, 55.244446%, 100%)" offset="0.816406"/><stop stop-opacity="1" stop-color="rgb(29.238892%, 55.978394%, 100%)" offset="0.820312"/><stop stop-opacity="1" stop-color="rgb(28.573608%, 56.710815%, 100%)" offset="0.824219"/><stop stop-opacity="1" stop-color="rgb(27.908325%, 57.444763%, 100%)" offset="0.828125"/><stop stop-opacity="1" stop-color="rgb(27.243042%, 58.177185%, 100%)" offset="0.832031"/><stop stop-opacity="1" stop-color="rgb(26.577759%, 58.909607%, 100%)" offset="0.835938"/><stop stop-opacity="1" stop-color="rgb(25.912476%, 59.642029%, 100%)" offset="0.839844"/><stop stop-opacity="1" stop-color="rgb(25.247192%, 60.375977%, 100%)" offset="0.84375"/><stop stop-opacity="1" stop-color="rgb(24.581909%, 61.108398%, 100%)" offset="0.847656"/><stop stop-opacity="1" stop-color="rgb(23.916626%, 61.842346%, 100%)" offset="0.851562"/><stop stop-opacity="1" stop-color="rgb(23.251343%, 62.574768%, 100%)" offset="0.855469"/><stop stop-opacity="1" stop-color="rgb(22.58606%, 63.308716%, 100%)" offset="0.859375"/><stop stop-opacity="1" stop-color="rgb(21.920776%, 64.041138%, 100%)" offset="0.863281"/><stop stop-opacity="1" stop-color="rgb(21.255493%, 64.775085%, 100%)" offset="0.867188"/><stop stop-opacity="1" stop-color="rgb(20.59021%, 65.507507%, 100%)" offset="0.871094"/><stop stop-opacity="1" stop-color="rgb(19.924927%, 66.241455%, 100%)" offset="0.875"/><stop stop-opacity="1" stop-color="rgb(19.259644%, 66.973877%, 100%)" offset="0.878906"/><stop stop-opacity="1" stop-color="rgb(18.59436%, 67.707825%, 100%)" offset="0.882812"/><stop stop-opacity="1" stop-color="rgb(17.929077%, 68.440247%, 100%)" offset="0.886719"/><stop stop-opacity="1" stop-color="rgb(17.263794%, 69.174194%, 100%)" offset="0.890625"/><stop stop-opacity="1" stop-color="rgb(16.598511%, 69.906616%, 100%)" offset="0.894531"/><stop stop-opacity="1" stop-color="rgb(15.933228%, 70.640564%, 100%)" offset="0.898437"/><stop stop-opacity="1" stop-color="rgb(15.267944%, 71.372986%, 100%)" offset="0.902344"/><stop stop-opacity="1" stop-color="rgb(14.602661%, 72.105408%, 100%)" offset="0.90625"/><stop stop-opacity="1" stop-color="rgb(13.937378%, 72.83783%, 100%)" offset="0.910156"/><stop stop-opacity="1" stop-color="rgb(13.272095%, 73.571777%, 100%)" offset="0.914062"/><stop stop-opacity="1" stop-color="rgb(12.606812%, 74.304199%, 100%)" offset="0.917969"/><stop stop-opacity="1" stop-color="rgb(11.941528%, 75.038147%, 100%)" offset="0.921875"/><stop stop-opacity="1" stop-color="rgb(11.276245%, 75.770569%, 100%)" offset="0.925781"/><stop stop-opacity="1" stop-color="rgb(10.610962%, 76.504517%, 100%)" offset="0.929687"/><stop stop-opacity="1" stop-color="rgb(9.945679%, 77.236938%, 100%)" offset="0.933594"/><stop stop-opacity="1" stop-color="rgb(9.280396%, 77.970886%, 100%)" offset="0.9375"/><stop stop-opacity="1" stop-color="rgb(8.615112%, 78.703308%, 100%)" offset="0.941406"/><stop stop-opacity="1" stop-color="rgb(7.949829%, 79.437256%, 100%)" offset="0.945312"/><stop stop-opacity="1" stop-color="rgb(7.284546%, 80.169678%, 100%)" offset="0.949219"/><stop stop-opacity="1" stop-color="rgb(6.619263%, 80.903625%, 100%)" offset="0.953125"/><stop stop-opacity="1" stop-color="rgb(5.953979%, 81.636047%, 100%)" offset="0.957031"/><stop stop-opacity="1" stop-color="rgb(5.288696%, 82.369995%, 100%)" offset="0.960937"/><stop stop-opacity="1" stop-color="rgb(4.623413%, 83.102417%, 100%)" offset="0.964844"/><stop stop-opacity="1" stop-color="rgb(3.95813%, 83.836365%, 100%)" offset="0.96875"/><stop stop-opacity="1" stop-color="rgb(3.292847%, 84.568787%, 100%)" offset="0.972656"/><stop stop-opacity="1" stop-color="rgb(2.627563%, 85.302734%, 100%)" offset="0.976562"/><stop stop-opacity="1" stop-color="rgb(1.96228%, 86.035156%, 100%)" offset="0.980469"/><stop stop-opacity="1" stop-color="rgb(1.298523%, 86.767578%, 100%)" offset="0.984375"/><stop stop-opacity="1" stop-color="rgb(0.648499%, 87.483215%, 100%)" offset="0.988281"/><stop stop-opacity="1" stop-color="rgb(0%, 88.198853%, 100%)" offset="0.992187"/><stop stop-opacity="1" stop-color="rgb(0%, 88.198853%, 100%)" offset="1"/></linearGradient><clipPath id="38ee03b48d"><path d="M 71.058594 206.199219 L 303.941406 206.199219 L 303.941406 217.089844 L 71.058594 217.089844 Z M 71.058594 206.199219 " clip-rule="nonzero"/></clipPath><clipPath id="58e91146e0"><path d="M 71.058594 226.535156 L 298.546875 226.535156 L 298.546875 237.171875 L 71.058594 237.171875 Z M 71.058594 226.535156 " clip-rule="nonzero"/></clipPath><clipPath id="9a21212579"><path d="M 85.222656 243.796875 L 289.75 243.796875 L 289.75 253.359375 L 85.222656 253.359375 Z M 85.222656 243.796875 " clip-rule="nonzero"/></clipPath><clipPath id="2698dff628"><path d="M 98.667969 263.109375 L 277.308594 263.109375 L 277.308594 306.945312 L 98.667969 306.945312 Z M 98.667969 263.109375 " clip-rule="nonzero"/></clipPath><clipPath id="c2403ad723"><path d="M 129 90 L 247 90 L 247 263.175781 L 129 263.175781 Z M 129 90 " clip-rule="nonzero"/></clipPath><clipPath id="afafd301e9"><path d="M 114.265625 94 L 262.765625 94 L 262.765625 237 L 114.265625 237 Z M 114.265625 94 " clip-rule="nonzero"/></clipPath><clipPath id="7bc38da232"><path d="M 104.875 115.667969 L 114.625 115.667969 L 114.625 237.167969 L 104.875 237.167969 Z M 104.875 115.667969 " clip-rule="nonzero"/></clipPath><clipPath id="6c98e144b1"><path d="M 262.8125 115.667969 L 272.5625 115.667969 L 272.5625 237.167969 L 262.8125 237.167969 Z M 262.8125 115.667969 " clip-rule="nonzero"/></clipPath></defs><g clip-path="url(#89bc4b2f14)"><g clip-path="url(#22edeadb93)"><path fill="#331d50" d="M 38.539062 37.5 L 338.539062 37.5 L 338.539062 337.5 L 38.539062 337.5 Z M 38.539062 37.5 " fill-opacity="1" fill-rule="nonzero"/></g></g><g clip-path="url(#98df8cbb09)"><g clip-path="url(#c05d7a2f10)"><path fill="url(#d27afe4d8b)" d="M 304.308594 71.058594 L 71.058594 71.058594 L 71.058594 304.308594 L 304.308594 304.308594 Z M 304.308594 71.058594 " fill-rule="nonzero"/></g></g><g clip-path="url(#38ee03b48d)"><path fill="#331d50" d="M 71.058594 206.199219 L 304.292969 206.199219 L 304.292969 217.089844 L 71.058594 217.089844 Z M 71.058594 206.199219 " fill-opacity="1" fill-rule="nonzero"/></g><g clip-path="url(#58e91146e0)"><path fill="#331d50" d="M 71.058594 226.535156 L 298.890625 226.535156 L 298.890625 237.171875 L 71.058594 237.171875 Z M 71.058594 226.535156 " fill-opacity="1" fill-rule="nonzero"/></g><g clip-path="url(#9a21212579)"><path fill="#331d50" d="M 85.222656 243.796875 L 290.0625 243.796875 L 290.0625 253.359375 L 85.222656 253.359375 Z M 85.222656 243.796875 " fill-opacity="1" fill-rule="nonzero"/></g><g clip-path="url(#2698dff628)"><path fill="#331d50" d="M 98.667969 263.109375 L 277.105469 263.109375 L 277.105469 307.375 L 98.667969 307.375 Z M 98.667969 263.109375 " fill-opacity="1" fill-rule="nonzero"/></g><g clip-path="url(#c2403ad723)"><path fill="#331d50" d="M 244.246094 263.109375 L 239.496094 263.109375 C 238.425781 263.109375 237.519531 262.261719 237.519531 261.128906 L 237.351562 165.203125 C 237.351562 164.695312 237.519531 164.242188 237.859375 163.902344 L 244.246094 156.773438 C 244.867188 156.09375 245.941406 156.546875 245.941406 157.453125 L 246.109375 261.1875 C 246.222656 262.261719 245.375 263.109375 244.246094 263.109375 Z M 131.847656 263.109375 C 130.777344 263.109375 129.871094 262.207031 129.871094 261.128906 L 129.871094 92.597656 C 129.871094 90.785156 132.074219 89.9375 133.261719 91.292969 L 137.386719 95.820312 L 186.777344 150.152344 C 187.566406 151 188.921875 151 189.65625 150.152344 L 238.367188 95.878906 L 242.492188 91.292969 C 243.679688 89.9375 245.882812 90.785156 245.882812 92.597656 L 245.882812 98.765625 L 245.941406 146.132812 C 245.941406 146.640625 245.769531 147.09375 245.429688 147.433594 L 240.683594 152.699219 C 239.496094 154.054688 237.292969 153.207031 237.292969 151.394531 L 237.238281 115.175781 C 237.238281 113.367188 235.035156 112.515625 233.847656 113.875 L 191.410156 161.1875 L 189.65625 163.109375 C 188.867188 163.960938 187.511719 163.960938 186.777344 163.109375 L 185.023438 161.1875 L 141.90625 113.761719 C 140.722656 112.460938 138.515625 113.308594 138.515625 115.0625 L 138.515625 261.1875 C 138.515625 262.261719 137.613281 263.167969 136.539062 263.167969 L 131.847656 263.167969 Z M 131.847656 263.109375 " fill-opacity="1" fill-rule="nonzero"/></g><g clip-path="url(#afafd301e9)"><path fill="#331d50" d="M 146.371094 151.960938 L 186.550781 196.160156 C 187.511719 197.238281 189.207031 197.238281 190.164062 196.160156 L 276.453125 100.066406 L 279.730469 96.445312 C 281.199219 94.804688 283.96875 95.820312 283.96875 98.085938 L 283.96875 103.007812 L 284.367188 233.910156 C 284.367188 235.265625 283.292969 236.34375 281.933594 236.34375 L 278.148438 236.34375 C 276.792969 236.34375 275.71875 235.265625 275.71875 233.910156 L 275.378906 120.609375 C 275.378906 118.34375 272.613281 117.328125 271.140625 118.96875 L 191.636719 207.535156 L 190.222656 209.0625 C 189.261719 210.140625 187.566406 210.140625 186.605469 209.0625 L 185.191406 207.535156 L 144.449219 162.714844 C 144.054688 162.261719 143.828125 161.695312 143.828125 161.074219 L 143.828125 152.925781 C 143.828125 151.621094 145.46875 151 146.371094 151.960938 Z M 93.59375 236.230469 C 92.519531 236.230469 91.617188 235.324219 91.617188 234.25 L 91.617188 96.785156 C 91.617188 94.972656 93.820312 94.125 95.007812 95.480469 L 99.132812 100.007812 L 138.007812 142.738281 C 138.347656 143.078125 138.515625 143.585938 138.515625 144.039062 L 138.515625 151.113281 C 138.515625 152.925781 136.3125 153.773438 135.125 152.414062 L 103.707031 117.835938 C 102.523438 116.535156 100.316406 117.382812 100.316406 119.136719 L 100.316406 234.136719 C 100.316406 235.210938 99.414062 236.117188 98.339844 236.117188 L 93.59375 236.117188 Z M 93.59375 236.230469 " fill-opacity="1" fill-rule="nonzero"/></g><g clip-path="url(#7bc38da232)"><path fill="#331d50" d="M 104.90625 237.167969 L 104.90625 115.667969 L 114.589844 115.667969 L 114.589844 237.167969 Z M 104.90625 237.167969 " fill-opacity="1" fill-rule="nonzero"/></g><g clip-path="url(#6c98e144b1)"><path fill="#331d50" d="M 262.847656 237.167969 L 262.847656 115.667969 L 272.53125 115.667969 L 272.53125 237.167969 Z M 262.847656 237.167969 " fill-opacity="1" fill-rule="nonzero"/></g></svg>