<svg width="44" height="50" viewBox="0 0 44 50" fill="none" xmlns="http://www.w3.org/2000/svg">
  <g id="main">
    <g id="leaf3">
      <path
        d="M38.1347 13.1155C35.2165 12.3368 31.9749 13.0895 29.6856 15.3788C27.3963 17.668 26.6437 20.9097 27.4223 23.8279C30.3405 24.6067 33.5821 23.8538 35.8714 21.5646C38.1607 19.2753 38.9134 16.0335 38.1347 13.1155Z"
        fill="#1FA558"
      ></path>
      <path
        d="M38.1347 13.1155C37.6142 12.9766 37.0832 12.8873 36.5493 12.8459C36.8655 15.426 36.036 18.1194 34.0556 20.0999C32.1747 21.9807 29.651 22.8235 27.192 22.6327C27.2414 23.0349 27.3173 23.4344 27.4223 23.8279C30.3405 24.6067 33.5821 23.8538 35.8714 21.5646C38.1607 19.2753 38.9134 16.0335 38.1347 13.1155Z"
        fill="#198849"
      ></path>
    </g>
    <g id="leaf2">
      <path
        d="M22.0291 0C19.415 1.51266 17.6551 4.33734 17.6551 7.57481C17.6551 10.8123 19.415 13.6367 22.0291 15.1496C24.6432 13.637 26.4031 10.8123 26.4031 7.57481C26.4031 4.33721 24.6432 1.51266 22.0291 0Z"
        fill="#1FA558"
      ></path>
      <path
        d="M22.0291 11.5656C19.9109 10.3398 18.354 8.25268 17.8393 5.78273C17.7187 6.36099 17.6551 6.96074 17.6551 7.57481C17.6551 10.8123 19.415 13.6367 22.0291 15.1496C24.6432 13.637 26.4031 10.8123 26.4031 7.57481C26.4031 6.96049 26.3395 6.36099 26.2189 5.78273C25.7042 8.25281 24.1473 10.3399 22.0291 11.5656Z"
        fill="#198849"
      ></path>
    </g>
    <g id="leaf1">
      <path
        d="M5.92346 13.1155C8.84149 12.3368 12.0833 13.0895 14.3726 15.3788C16.6618 17.668 17.4145 20.9097 16.6359 23.8279C13.7177 24.6067 10.476 23.8538 8.18676 21.5646C5.8975 19.2753 5.14481 16.0335 5.92346 13.1155Z"
        fill="#1FA558"
      ></path>
      <path
        d="M10.0026 20.1C8.02205 18.1194 7.19264 15.426 7.50888 12.846C6.97499 12.8875 6.44392 12.9766 5.92346 13.1155C5.14481 16.0335 5.8975 19.2753 8.18676 21.5646C10.476 23.8538 13.7177 24.6067 16.6359 23.8279C16.7408 23.4344 16.8171 23.035 16.8663 22.633C14.4072 22.8235 11.8834 21.9808 10.0f026 20.1Z"
        fill="#198849"
      ></path>
    </g>
    <path
      id="water"
      d="M21.9949 49.9978C34.0734 49.9978 43.8648 40.2064 43.8648 28.1279H0.124939C0.124939 40.2064 9.91637 49.9978 21.9949 49.9978Z"
      fill="#98E5FA"
    ></path>
    <g id="lands">
      <path
        id="land1"
        d="M31.8363 33.5954V37.9694L32.9298 41.2499L36.2104 40.1564L38.3973 35.7823V32.5019L42.7714 28.1279H25.2753L26.3689 32.5019L31.8363 33.5954Z"
        fill="#1FA558"
      ></path>
      <path
        id="land2"
        d="M13.2469 28.1279H0.124939C0.124939 38.3629 7.15627 46.9547 16.6517 49.3391L16.5274 48.9043L15.4339 44.5303L18.7143 42.3433L19.8078 37.9693V32.5018L16.5274 31.4083L13.2469 28.1279Z"
        fill="#1FA558"
      ></path>
    </g>
    <path
      id="shadow"
      d="M6.68594 28.1279H0.124939C0.124939 40.2064 9.91637 49.9978 21.9949 49.9978C23.1099 49.9978 24.2052 49.9138 25.2753 49.7529C14.7532 48.1701 6.68594 39.0913 6.68594 28.1279Z"
      fill="#7E7E7E"
      fill-opacity="0.2"
    ></path>
  </g>
  <defs></defs>
</svg>
